<svg xmlns="http://www.w3.org/2000/svg" width="32" height="32" id="food">
  <g stroke-linecap="round" stroke-linejoin="round" transform="translate(2318.003 -824.046)">
    <path fill="#faa41a" stroke="#383747" d="M-2314.835 842.838c2.06 3.4 7.51 4.959 12.406 4.75 1.718-.073 3.376-.451 4.844-1.157 1.795-.862 3.137-2.085 4.25-3.562l.03.062s2.446 3.654 4.094 3.22c.744-.197-1.687-5.189-1.687-6.345 0-.94 2.984-5.495 1.437-6.375a.327.327 0 0 0-.187-.03h0c-1.087.05-3.875 3.843-3.875 3.843h-.031c-1.565-2.19-4.104-3.778-7.063-4.438a13.912 13.912 0 0 0-3.5-.312c-5.002.165-9.51 2.985-10.875 7.219l.031.062 1.906 1.344-1.78 1.687"></path>
    <ellipse cx="-2308.719" cy="837.896" fill="#fff" stroke="#383747" rx="1.369" ry="1.349"></ellipse>
    <path fill="none" stroke="#383747" d="M-2305.772 836.47a5.76 5.675 0 0 1 2.393 6.205 5.76 5.675 0 0 1-5.22 4.197"></path>
    <path fill="none" stroke="#fff" d="M-2304.67 834.386a6 6 0 0 1 4.421.525"></path>
  </g>
</svg>
