<svg xmlns="http://www.w3.org/2000/svg" width="32" height="32" id="food">
  <g stroke-linecap="round" stroke-linejoin="round">
    <path fill="#faa41a" stroke="#383747" d="M11 9.318c-5.919 0-7.346 6.573-6.123 10.413 2.89 9.072 8.906 11.198 11.148 8.946 2.574 2.152 8.661.377 11.149-8.946.988-3.704.152-10.413-5.767-10.413a10.63 10.63 0 0 0-5.203 1.353A10.631 10.631 0 0 0 11 9.318z"></path>
    <path fill="none" stroke="#383747" d="M16.27 10.618s.414-5.323 2.188-7.342c1.436-1.634 3.824-.546 3.47 1.661-.492 3.048-5.658 5.68-5.658 5.68z"></path>
    <path fill="none" stroke="#383747" d="M16.283 9.97c1.615-4.774-2.167-7.137-5.136-6.64-1.184 2.984.524 6.513 5.136 6.64z"></path>
    <path fill="#37c8ab" stroke="#383747" d="m16.43 10.142-3.25-4.5m3.425 4.518 2.519-4.199"></path>
    <path fill="none" stroke="#fff" d="M25.078 15.737c-.598-2.162-2.079-3.985-4.94-3.985"></path>
  </g>
</svg>
