<svg xmlns="http://www.w3.org/2000/svg" width="32" height="32" id="food">
  <g stroke-linecap="round" stroke-linejoin="round">
    <path fill="#faa41a" stroke="#383747" d="M9.818 23.95c-.829 0-1.52.543-1.777 1.286a1.843 1.843 0 0 0-.731-.159c-1.047 0-1.896.851-1.896 1.9v.08c-.97.083-1.738.606-1.738 1.6 0 1.05.848 1.547 1.896 1.547h5.397"></path>
    <path fill="none" stroke="#383747" d="M25.797 11.202v15.835a3.157 3.157 0 0 1-3.16 3.167h-9.48a3.157 3.157 0 0 1-3.161-3.167V11.202m3.792 5.7v6.968m3.921-7.6v6.967m4.296-6.968v7.601h0"></path>
    <path fill="#faa41a" stroke="#383747" d="M16.139 1.796c-2.531 0-4.62 1.905-4.938 4.355-.107-.012-.207-.04-.316-.04A2.88 2.88 0 0 0 8 8.98a2.88 2.88 0 0 0 2.884 2.87c.36 0 .69-.076 1.007-.198v4.355c0 .79.634 1.425 1.422 1.425a1.42 1.42 0 0 0 1.422-1.425v-4.434c.446.13.915.218 1.403.218a4.95 4.95 0 0 0 3.2-1.168c.54.404 1.21.653 1.935.653.511 0 .992-.125 1.422-.337a2.864 2.864 0 0 0 4.958-1.96 2.864 2.864 0 0 0-3.674-2.75 3.24 3.24 0 0 0-2.706-1.445c-.188 0-.374.01-.553.04a4.978 4.978 0 0 0-4.582-3.029z"></path>
    <path fill="none" stroke="#383747" d="M25.797 13.102c1.4 0 2.528 1.13 2.528 2.534v6.967a2.525 2.525 0 0 1-2.528 2.534"></path>
    <path fill="none" stroke="#fff" d="M23.797 23.92v1.575a2.76 2.76 0 0 1-2.76 2.77h-.588"></path>
  </g>
</svg>
